<svg width="5" height="9" viewBox="0 0 5 9" fill="none" xmlns="http://www.w3.org/2000/svg">
<path d="M4.82993 4.91567L0.986006 8.82782C0.877687 8.93807 0.730775 9 0.577589 9C0.424403 9 0.277491 8.93807 0.169172 8.82782C0.0608528 8.71758 1.14133e-09 8.56806 0 8.41216C-1.14133e-09 8.25625 0.0608528 8.10673 0.169172 7.99649L3.60516 4.50049L0.170133 1.00351C0.116499 0.948922 0.0739538 0.884119 0.0449272 0.812799C0.0159007 0.741479 0.000960821 0.665038 0.00096082 0.587842C0.00096082 0.510645 0.0159007 0.434205 0.0449272 0.362884C0.0739538 0.291564 0.116499 0.226761 0.170133 0.172175C0.223767 0.117589 0.28744 0.0742887 0.357516 0.0447468C0.427593 0.015205 0.5027 -5.75158e-10 0.57855 0C0.6544 5.75159e-10 0.729507 0.015205 0.799584 0.0447468C0.86966 0.0742887 0.933333 0.117589 0.986967 0.172175L4.83089 4.08433C4.88458 4.13892 4.92716 4.20375 4.95618 4.27511C4.9852 4.34648 5.00009 4.42297 5 4.5002C4.99991 4.57744 4.98484 4.65389 4.95566 4.72519C4.92647 4.79648 4.88375 4.86121 4.82993 4.91567Z" fill="#3B2418"/>
</svg>
