<svg width="5" height="9" viewBox="0 0 5 9" fill="none" xmlns="http://www.w3.org/2000/svg">
<path d="M4.83081 7.99649C4.93914 8.10673 5 8.25625 5 8.41216C5 8.56806 4.93914 8.71758 4.83081 8.82782C4.72248 8.93807 4.57556 9 4.42236 9C4.26915 9 4.12223 8.93807 4.0139 8.82782L0.169603 4.91567C0.115845 4.86115 0.0731905 4.79637 0.0440861 4.72504C0.0149817 4.65371 0 4.57723 0 4.5C0 4.42277 0.0149817 4.34629 0.0440861 4.27496C0.0731905 4.20363 0.115845 4.13885 0.169603 4.08433L4.0139 0.172175C4.12223 0.061933 4.26915 -2.32317e-09 4.42236 0C4.57556 2.32317e-09 4.72248 0.0619332 4.83081 0.172175C4.93914 0.282417 5 0.431936 5 0.587842C5 0.743747 4.93914 0.893267 4.83081 1.00351L1.39545 4.49951L4.83081 7.99649Z" fill="#3B2418"/>
</svg>
